<mxfile host="app.diagrams.net" agent="Mozilla/5.0 (Windows NT 10.0; Win64; x64) AppleWebKit/537.36 (KHTML, like Gecko) Chrome/129.0.0.0 Safari/537.36" version="24.7.16">
  <diagram name="Страница — 1" id="jtEWQZ8PlD-b1NzgwBsx">
    <mxGraphModel grid="1" page="1" gridSize="10" guides="1" tooltips="1" connect="1" arrows="1" fold="1" pageScale="1" pageWidth="827" pageHeight="1169" math="0" shadow="0">
      <root>
        <mxCell id="0" />
        <mxCell id="1" parent="0" />
        <mxCell id="dGqos1gCrbFx9F760o5E-2" value="Повышение эффективности управления разработками цифровой компании" style="rounded=0;whiteSpace=wrap;html=1;" vertex="1" parent="1">
          <mxGeometry x="260" y="290" width="170" height="70" as="geometry" />
        </mxCell>
        <mxCell id="dGqos1gCrbFx9F760o5E-3" value="Оптимизация процессов сбора и анализа требований" style="rounded=0;whiteSpace=wrap;html=1;" vertex="1" parent="1">
          <mxGeometry x="120" y="430" width="130" height="60" as="geometry" />
        </mxCell>
        <mxCell id="dGqos1gCrbFx9F760o5E-4" value="Повышение эффективности управления проектами" style="rounded=0;whiteSpace=wrap;html=1;" vertex="1" parent="1">
          <mxGeometry x="440" y="430" width="130" height="60" as="geometry" />
        </mxCell>
        <mxCell id="dGqos1gCrbFx9F760o5E-5" value="Улучшение мониторинга и управления версиями продукта" style="rounded=0;whiteSpace=wrap;html=1;" vertex="1" parent="1">
          <mxGeometry x="280" y="430" width="130" height="60" as="geometry" />
        </mxCell>
        <mxCell id="dGqos1gCrbFx9F760o5E-6" value="Улучшение процесса сбора данных" style="rounded=0;whiteSpace=wrap;html=1;" vertex="1" parent="1">
          <mxGeometry x="120" y="550" width="130" height="60" as="geometry" />
        </mxCell>
        <mxCell id="dGqos1gCrbFx9F760o5E-7" value="Оптимизация распределения задач" style="rounded=0;whiteSpace=wrap;html=1;" vertex="1" parent="1">
          <mxGeometry x="440" y="550" width="130" height="60" as="geometry" />
        </mxCell>
        <mxCell id="dGqos1gCrbFx9F760o5E-8" value="Улучшение контроля использования ресурсов" style="rounded=0;whiteSpace=wrap;html=1;" vertex="1" parent="1">
          <mxGeometry x="600" y="550" width="130" height="60" as="geometry" />
        </mxCell>
        <mxCell id="dGqos1gCrbFx9F760o5E-9" value="Автоматизация контроля версий" style="rounded=0;whiteSpace=wrap;html=1;" vertex="1" parent="1">
          <mxGeometry x="280" y="550" width="130" height="60" as="geometry" />
        </mxCell>
        <mxCell id="dGqos1gCrbFx9F760o5E-10" value="" style="endArrow=none;html=1;rounded=0;entryX=0.5;entryY=1;entryDx=0;entryDy=0;" edge="1" parent="1" target="dGqos1gCrbFx9F760o5E-3">
          <mxGeometry width="50" height="50" relative="1" as="geometry">
            <mxPoint x="185" y="550" as="sourcePoint" />
            <mxPoint x="230" y="670" as="targetPoint" />
          </mxGeometry>
        </mxCell>
        <mxCell id="dGqos1gCrbFx9F760o5E-11" value="" style="endArrow=none;html=1;rounded=0;entryX=0.5;entryY=1;entryDx=0;entryDy=0;exitX=0.5;exitY=0;exitDx=0;exitDy=0;" edge="1" parent="1" source="dGqos1gCrbFx9F760o5E-9" target="dGqos1gCrbFx9F760o5E-5">
          <mxGeometry width="50" height="50" relative="1" as="geometry">
            <mxPoint x="310" y="740" as="sourcePoint" />
            <mxPoint x="360" y="690" as="targetPoint" />
          </mxGeometry>
        </mxCell>
        <mxCell id="dGqos1gCrbFx9F760o5E-12" value="" style="endArrow=none;html=1;rounded=0;entryX=0.5;entryY=1;entryDx=0;entryDy=0;exitX=0.5;exitY=0;exitDx=0;exitDy=0;" edge="1" parent="1" source="dGqos1gCrbFx9F760o5E-7" target="dGqos1gCrbFx9F760o5E-4">
          <mxGeometry width="50" height="50" relative="1" as="geometry">
            <mxPoint x="460" y="730" as="sourcePoint" />
            <mxPoint x="510" y="680" as="targetPoint" />
          </mxGeometry>
        </mxCell>
        <mxCell id="dGqos1gCrbFx9F760o5E-13" value="" style="endArrow=none;html=1;rounded=0;entryX=0.5;entryY=1;entryDx=0;entryDy=0;exitX=0.5;exitY=0;exitDx=0;exitDy=0;" edge="1" parent="1" source="dGqos1gCrbFx9F760o5E-8" target="dGqos1gCrbFx9F760o5E-4">
          <mxGeometry width="50" height="50" relative="1" as="geometry">
            <mxPoint x="590" y="730" as="sourcePoint" />
            <mxPoint x="640" y="680" as="targetPoint" />
          </mxGeometry>
        </mxCell>
        <mxCell id="dGqos1gCrbFx9F760o5E-14" value="" style="endArrow=none;html=1;rounded=0;entryX=0.5;entryY=1;entryDx=0;entryDy=0;exitX=0.5;exitY=0;exitDx=0;exitDy=0;" edge="1" parent="1" source="dGqos1gCrbFx9F760o5E-3" target="dGqos1gCrbFx9F760o5E-2">
          <mxGeometry width="50" height="50" relative="1" as="geometry">
            <mxPoint x="240" y="420" as="sourcePoint" />
            <mxPoint x="290" y="370" as="targetPoint" />
          </mxGeometry>
        </mxCell>
        <mxCell id="dGqos1gCrbFx9F760o5E-16" value="" style="endArrow=none;html=1;rounded=0;entryX=0.5;entryY=1;entryDx=0;entryDy=0;exitX=0.5;exitY=0;exitDx=0;exitDy=0;" edge="1" parent="1" source="dGqos1gCrbFx9F760o5E-5" target="dGqos1gCrbFx9F760o5E-2">
          <mxGeometry width="50" height="50" relative="1" as="geometry">
            <mxPoint x="260" y="740" as="sourcePoint" />
            <mxPoint x="310" y="690" as="targetPoint" />
          </mxGeometry>
        </mxCell>
        <mxCell id="dGqos1gCrbFx9F760o5E-17" value="" style="endArrow=none;html=1;rounded=0;entryX=0.5;entryY=1;entryDx=0;entryDy=0;exitX=0.5;exitY=0;exitDx=0;exitDy=0;" edge="1" parent="1" source="dGqos1gCrbFx9F760o5E-4" target="dGqos1gCrbFx9F760o5E-2">
          <mxGeometry width="50" height="50" relative="1" as="geometry">
            <mxPoint x="440" y="730" as="sourcePoint" />
            <mxPoint x="490" y="680" as="targetPoint" />
          </mxGeometry>
        </mxCell>
        <mxCell id="dGqos1gCrbFx9F760o5E-18" value="Автоматизация инструментов анализа и распределения" style="rounded=0;whiteSpace=wrap;html=1;" vertex="1" parent="1">
          <mxGeometry x="125" y="670" width="120" height="60" as="geometry" />
        </mxCell>
        <mxCell id="dGqos1gCrbFx9F760o5E-19" value="" style="endArrow=none;html=1;rounded=0;entryX=0.5;entryY=1;entryDx=0;entryDy=0;exitX=0.5;exitY=0;exitDx=0;exitDy=0;" edge="1" parent="1" source="dGqos1gCrbFx9F760o5E-18" target="dGqos1gCrbFx9F760o5E-6">
          <mxGeometry width="50" height="50" relative="1" as="geometry">
            <mxPoint x="160" y="910" as="sourcePoint" />
            <mxPoint x="210" y="860" as="targetPoint" />
          </mxGeometry>
        </mxCell>
      </root>
    </mxGraphModel>
  </diagram>
</mxfile>
